<?xml version="1.0" encoding="UTF-8" standalone="no"?>
<!-- Created with Inkscape (http://www.inkscape.org/) -->

<svg
   width="100"
   height="100"
   viewBox="0 0 26.458333 26.458334"
   version="1.1"
   id="svg5"
   inkscape:export-filename="C:\Users\Admin\Desktop\Dezynation\Projects\bai-sajewellers\assets\img\call.png"
   inkscape:export-xdpi="96"
   inkscape:export-ydpi="96"
   inkscape:version="1.1 (c68e22c387, 2021-05-23)"
   sodipodi:docname="logo.svg"
   xmlns:inkscape="http://www.inkscape.org/namespaces/inkscape"
   xmlns:sodipodi="http://sodipodi.sourceforge.net/DTD/sodipodi-0.dtd"
   xmlns="http://www.w3.org/2000/svg"
   xmlns:svg="http://www.w3.org/2000/svg">
  <sodipodi:namedview
     id="namedview7"
     pagecolor="#505050"
     bordercolor="#eeeeee"
     borderopacity="1"
     inkscape:pageshadow="0"
     inkscape:pageopacity="0"
     inkscape:pagecheckerboard="0"
     inkscape:document-units="mm"
     showgrid="false"
     units="px"
     inkscape:snap-bbox="true"
     inkscape:snap-bbox-midpoints="true"
     inkscape:snap-global="true"
     inkscape:zoom="3.8912458"
     inkscape:cx="68.358571"
     inkscape:cy="56.922644"
     inkscape:window-width="1366"
     inkscape:window-height="705"
     inkscape:window-x="-8"
     inkscape:window-y="-8"
     inkscape:window-maximized="1"
     inkscape:current-layer="g2538" />
  <defs
     id="defs2">
    <inkscape:path-effect
       effect="bspline"
       id="path-effect19545"
       is_visible="true"
       lpeversion="1"
       weight="33.333333"
       steps="2"
       helper_size="0"
       apply_no_weight="true"
       apply_with_weight="true"
       only_selected="false" />
    <inkscape:path-effect
       effect="bspline"
       id="path-effect18045"
       is_visible="true"
       lpeversion="1"
       weight="33.333333"
       steps="2"
       helper_size="0"
       apply_no_weight="true"
       apply_with_weight="true"
       only_selected="false" />
    <inkscape:path-effect
       effect="bspline"
       id="path-effect9058"
       is_visible="true"
       lpeversion="1"
       weight="33.333333"
       steps="2"
       helper_size="0"
       apply_no_weight="true"
       apply_with_weight="true"
       only_selected="false" />
    <inkscape:path-effect
       effect="bspline"
       id="path-effect8584"
       is_visible="true"
       lpeversion="1"
       weight="33.333333"
       steps="2"
       helper_size="0"
       apply_no_weight="true"
       apply_with_weight="true"
       only_selected="false" />
    <inkscape:path-effect
       effect="bspline"
       id="path-effect6772"
       is_visible="true"
       lpeversion="1"
       weight="33.333333"
       steps="2"
       helper_size="0"
       apply_no_weight="true"
       apply_with_weight="true"
       only_selected="false" />
    <inkscape:path-effect
       effect="bspline"
       id="path-effect6363"
       is_visible="true"
       lpeversion="1"
       weight="33.333333"
       steps="2"
       helper_size="0"
       apply_no_weight="true"
       apply_with_weight="true"
       only_selected="false" />
    <inkscape:path-effect
       effect="bspline"
       id="path-effect6166"
       is_visible="true"
       lpeversion="1"
       weight="33.333333"
       steps="2"
       helper_size="0"
       apply_no_weight="true"
       apply_with_weight="true"
       only_selected="false" />
    <inkscape:path-effect
       effect="bspline"
       id="path-effect6080"
       is_visible="true"
       lpeversion="1"
       weight="33.333333"
       steps="2"
       helper_size="0"
       apply_no_weight="true"
       apply_with_weight="true"
       only_selected="false" />
    <inkscape:path-effect
       effect="bspline"
       id="path-effect6042"
       is_visible="true"
       lpeversion="1"
       weight="33.333333"
       steps="2"
       helper_size="0"
       apply_no_weight="true"
       apply_with_weight="true"
       only_selected="false" />
    <inkscape:path-effect
       effect="bspline"
       id="path-effect5367"
       is_visible="true"
       lpeversion="1"
       weight="33.333333"
       steps="2"
       helper_size="0"
       apply_no_weight="true"
       apply_with_weight="true"
       only_selected="false" />
    <inkscape:path-effect
       effect="bspline"
       id="path-effect5224"
       is_visible="true"
       lpeversion="1"
       weight="33.333333"
       steps="2"
       helper_size="0"
       apply_no_weight="true"
       apply_with_weight="true"
       only_selected="false" />
    <inkscape:path-effect
       effect="bspline"
       id="path-effect4402"
       is_visible="true"
       lpeversion="1"
       weight="33.333333"
       steps="2"
       helper_size="0"
       apply_no_weight="true"
       apply_with_weight="true"
       only_selected="false" />
    <inkscape:path-effect
       effect="bspline"
       id="path-effect4365"
       is_visible="true"
       lpeversion="1"
       weight="33.333333"
       steps="2"
       helper_size="0"
       apply_no_weight="true"
       apply_with_weight="true"
       only_selected="false" />
    <inkscape:path-effect
       effect="bspline"
       id="path-effect3748"
       is_visible="true"
       lpeversion="1"
       weight="33.333333"
       steps="2"
       helper_size="0"
       apply_no_weight="true"
       apply_with_weight="true"
       only_selected="false" />
    <inkscape:path-effect
       effect="bspline"
       id="path-effect3710"
       is_visible="true"
       lpeversion="1"
       weight="33.333333"
       steps="2"
       helper_size="0"
       apply_no_weight="true"
       apply_with_weight="true"
       only_selected="false" />
    <inkscape:path-effect
       effect="bspline"
       id="path-effect3624"
       is_visible="true"
       lpeversion="1"
       weight="33.333333"
       steps="2"
       helper_size="0"
       apply_no_weight="true"
       apply_with_weight="true"
       only_selected="false" />
    <inkscape:path-effect
       effect="bspline"
       id="path-effect2789"
       is_visible="true"
       lpeversion="1"
       weight="33.333333"
       steps="2"
       helper_size="0"
       apply_no_weight="true"
       apply_with_weight="true"
       only_selected="false" />
    <inkscape:path-effect
       effect="bspline"
       id="path-effect2672"
       is_visible="true"
       lpeversion="1"
       weight="33.333333"
       steps="2"
       helper_size="0"
       apply_no_weight="true"
       apply_with_weight="true"
       only_selected="false" />
  </defs>
  <g
     inkscape:label="Layer 1"
     inkscape:groupmode="layer"
     id="layer1">
    <g
       id="g2477"
       style="stroke:#ffffff;stroke-opacity:1"
       transform="matrix(0.9189433,0,0,0.9189433,1.0580327,1.2088559)">
      <g
         id="g2538"
         inkscape:export-filename="C:\Users\Admin\Desktop\Dezynation\Projects\bai-sajewellers\assets\img\call.png"
         inkscape:export-xdpi="96"
         inkscape:export-ydpi="96">
        <g
           id="g19557"
           inkscape:export-filename="C:\Users\Admin\Desktop\Dezynation\Projects\bai-sajewellers\assets\img\logo.png"
           inkscape:export-xdpi="183.53792"
           inkscape:export-ydpi="183.53792"
           transform="matrix(1.0375603,0,0,1.0375603,-0.42128687,-2.1879696)">
          <path
             id="path3622"
             style="fill:#000080;fill-opacity:1;stroke:#000080;stroke-width:0.287921px;stroke-linecap:butt;stroke-linejoin:miter;stroke-opacity:1"
             d="m 13.186169,10.375361 c -0.776928,0.850922 -1.553688,1.701637 -1.8743,2.620533 -0.320612,0.918897 -0.185036,1.905263 0.203569,2.601977 0.388605,0.696713 1.029803,1.103718 1.670731,1.510462 0.640928,-0.406744 1.282126,-0.813749 1.670731,-1.510462 0.388605,-0.696714 0.524181,-1.68308 0.203569,-2.601977 -0.320612,-0.918896 -1.097372,-1.769611 -1.8743,-2.620533 z" />
          <path
             style="fill:#000080;fill-opacity:1;stroke:#000080;stroke-width:0.288375;stroke-linecap:butt;stroke-linejoin:miter;stroke-miterlimit:4;stroke-dasharray:none;stroke-opacity:1"
             d="m 10.794178,12.464304 c -0.136134,0.304814 -0.40834,0.914302 -0.369632,1.634777 0.03871,0.720474 0.387981,1.551314 0.737405,2.382516 -0.271757,0.0184 -0.543241,0.03677 -1.059097,-0.156457 C 9.5869974,16.131908 8.8270004,15.726862 8.4037376,15.167449 7.9804747,14.608036 7.8913308,13.869804 7.8257491,13.334498 7.7601673,12.799192 7.716679,12.454661 7.3911439,12.189335 7.0656088,11.924008 6.4573986,11.738003 5.8495229,11.5521 c 0.6092947,-0.393831 1.2186676,-0.787713 1.8192219,-0.996346 0.6005544,-0.208633 1.1921427,-0.232106 1.7342828,0.06621 0.5421402,0.298316 1.0348324,0.918072 1.2810584,1.227798 0.246226,0.309726 0.246226,0.309728 0.110092,0.614542 z"
             id="path3746"
             inkscape:path-effect="#path-effect3748"
             inkscape:original-d="m 10.930312,12.159491 c -0.271918,0.609783 -0.544124,1.219271 -0.816634,1.828501 0.349725,0.831501 1.048273,2.493605 1.048273,2.493605 0,0 -0.543221,0.03707 -0.815271,0.05519 C 9.5869459,16.132005 8.8269489,15.726959 8.0666429,15.321624 7.9794869,14.608155 7.8915859,13.869773 7.8036179,13.143423 7.7604199,12.79916 7.7169359,12.454629 7.6731499,12.109808 7.0655549,11.924184 5.8495229,11.5521 5.8495229,11.5521 c 0,0 1.218883,-0.78738 1.827884,-1.181494 0.591904,-0.02319 1.183492,-0.04667 1.774798,-0.07042 0.4930049,0.620062 0.9856981,1.239817 1.4781071,1.859303 z"
             sodipodi:nodetypes="ccccccccccsc" />
          <a
             id="a5226"
             transform="rotate(1.101544,-381.43581,-477.08783)"
             style="fill:#000080;fill-opacity:1;stroke:#000080;stroke-opacity:1">
            <path
               style="fill:#000080;fill-opacity:1;stroke:#000080;stroke-width:0.287921px;stroke-linecap:butt;stroke-linejoin:miter;stroke-opacity:1"
               d="m 24.953497,4.7398199 c 0.141848,0.3021966 0.425479,0.9064527 0.40034,1.6275288 -0.02514,0.7210761 -0.358709,1.5583436 -0.692424,2.3959756 0.272055,0.013277 0.543837,0.02654 1.055964,-0.1763681 0.512127,-0.2029081 1.264364,-0.6221878 1.677022,-1.1894692 0.412657,-0.5672813 0.487889,-1.3070607 0.543383,-1.8435061 0.05549,-0.5364455 0.09249,-0.8817339 0.412971,-1.1531417 0.320483,-0.2714077 0.925084,-0.4688286 1.529352,-0.6661409 -0.6166,-0.3822923 -1.23328,-0.7646338 -1.837655,-0.961925 -0.604376,-0.1972912 -1.196301,-0.2096243 -1.73273,0.098845 -0.536428,0.3084692 -1.017367,0.9373892 -1.257718,1.2516952 -0.240352,0.314306 -0.240352,0.31431 -0.09851,0.6165066 z"
               id="path4361"
               inkscape:path-effect="#path-effect4365"
               inkscape:original-d="m 24.81165,4.4376233 c 0.283348,0.604556 0.566979,1.208812 0.850909,1.812805 -0.33401,0.837937 -1.001146,2.512896 -1.001146,2.512896 0,0 0.543822,0.02684 0.816165,0.03983 0.75198,-0.419009 1.504217,-0.838289 2.256758,-1.257865 0.07371,-0.714983 0.147696,-1.454889 0.221976,-2.182766 0.03671,-0.345015 0.0737,-0.690304 0.110988,-1.035888 0.603993,-0.197029 1.812805,-0.591937 1.812805,-0.591937 0,0 -1.233489,-0.7642968 -1.849801,-1.1468768 -0.592236,-0.01204 -1.184161,-0.02438 -1.775809,-0.037 -0.481246,0.629233 -0.962185,1.2581528 -1.442845,1.8867978 z"
               sodipodi:nodetypes="ccccccccccsc" />
          </a>
          <path
             id="path4400"
             style="fill:#6352dd;fill-opacity:1;stroke:#6352dd;stroke-width:0.999999px;stroke-linecap:butt;stroke-linejoin:miter;stroke-opacity:1"
             d="m 74.416016,52.509766 c -1.328341,0.04261 -2.099684,0.685403 -3.384766,2.527343 -1.285082,1.841941 -3.084053,4.882592 -5.375,6.574219 -2.290947,1.691628 -5.075348,2.034304 -7.859375,2.376953 0.663884,0.770962 1.328182,1.542091 1.638672,3.544922 0.31049,2.002832 0.267227,5.237661 -1.253906,7.400391 -1.521134,2.16273 -4.518335,3.254392 -6.113282,4.732422 -1.594946,1.478029 -1.787799,3.341198 -1.648437,4.904296 0.139362,1.563099 0.608935,2.826324 1.080078,4.089844 0.299818,-1.756078 0.600555,-3.511747 2.259766,-4.861328 1.65921,-1.34958 4.678566,-2.292349 6.863281,-4.101562 2.184715,-1.809214 3.534276,-4.485671 3.695312,-7.13086 0.10754,-1.766447 -0.316669,-3.51688 -0.992187,-4.910156 0.361476,0.184004 0.718299,0.349782 1.068359,0.488281 2.055845,0.813381 3.896208,0.770859 5.480469,-0.02148 1.584261,-0.792344 2.913156,-2.333982 3.833984,-4.068359 0.920829,-1.734378 1.433642,-3.661867 2.804688,-4.947266 1.371045,-1.285399 3.59895,-1.927845 5.826172,-2.570313 -0.942287,-0.985117 -1.898255,-1.983953 -3.304688,-2.748047 -1.406433,-0.764093 -3.2908,-1.321912 -4.61914,-1.279296 z"
             transform="matrix(0.28792128,0,0,0.28792128,-1.151358,-1.3154848)" />
          <path
             id="path5220"
             style="fill:#6352dd;fill-opacity:1;stroke:#6352dd;stroke-width:0.999999px;stroke-linecap:butt;stroke-linejoin:miter;stroke-opacity:1"
             d="m 24.921875,52.509766 c -1.30671,0.02886 -3.044751,0.562959 -4.363281,1.279296 -1.406433,0.764094 -2.362401,1.76293 -3.304688,2.748047 2.227222,0.642468 4.455127,1.284914 5.826172,2.570313 1.371046,1.285399 1.883859,3.210935 2.804688,4.945312 0.920828,1.734378 2.249723,3.277969 3.833984,4.070313 1.584261,0.792343 3.424624,0.834865 5.480469,0.02148 0.35006,-0.138499 0.706883,-0.304277 1.068359,-0.488281 -0.675599,1.393322 -1.099734,3.143589 -0.992187,4.910156 0.161036,2.645189 1.510596,5.321645 3.695312,7.13086 2.184716,1.809214 5.204071,2.751982 6.863281,4.101562 1.659211,1.349581 1.959948,3.10525 2.259766,4.861328 0.471143,-1.26352 0.940716,-2.526745 1.080078,-4.089844 0.139362,-1.563098 -0.05349,-3.426267 -1.648437,-4.904296 -1.594947,-1.47803 -4.592148,-2.569692 -6.113282,-4.732422 -1.521133,-2.16273 -1.564396,-5.397559 -1.253906,-7.400391 0.31049,-2.002831 0.974788,-2.77396 1.638672,-3.544922 -2.784027,-0.342649 -5.568428,-0.685326 -7.859375,-2.376953 -2.290947,-1.691627 -4.089918,-4.732278 -5.375,-6.574219 -1.285082,-1.84194 -2.056425,-2.484728 -3.384766,-2.527343 -0.08302,-0.0027 -0.168745,-0.0019 -0.255859,0 z"
             transform="matrix(0.28792128,0,0,0.28792128,-1.151358,-1.3154848)" />
          <path
             id="path5365"
             style="fill:#6352dd;fill-opacity:1;stroke:#6352dd;stroke-width:0.285099px;stroke-linecap:butt;stroke-linejoin:miter;stroke-opacity:1"
             d="M 13.2031,5.3010096 C 12.763499,5.8871447 12.324124,6.4732703 11.750318,6.8456701 11.176512,7.21807 10.467946,7.3771788 10.089278,7.8657922 9.7106128,8.3544052 9.4030589,9.0239865 9.3542129,9.8421335 9.7205468,10.01309 10.049965,10.221247 10.367407,10.489978 c 0.317443,0.268731 0.697085,0.671851 0.965731,1.038185 0.219799,-0.512868 1.52805,-1.8794951 1.869962,-2.0870846 0.341912,0.2075895 1.724155,1.6112126 1.943955,2.1240806 0.268645,-0.366334 0.611291,-0.80645 0.928735,-1.075181 0.317442,-0.268731 0.609863,-0.402896 0.976198,-0.5738525 C 17.003142,9.0979785 16.695591,8.3544052 16.316923,7.8657922 15.938255,7.3771788 15.229689,7.21807 14.655883,6.8456701 14.082076,6.4732703 13.642701,5.8871447 13.2031,5.3010096 Z"
             sodipodi:nodetypes="csscscccscssc" />
          <path
             id="path6361"
             style="fill:#000080;fill-opacity:1;stroke:#000080;stroke-width:0.288375;stroke-linecap:butt;stroke-linejoin:miter;stroke-miterlimit:4;stroke-dasharray:none;stroke-opacity:1"
             d="m 13.186169,20.608031 c -0.59514,-0.610018 -1.190129,-1.220025 -1.190032,-1.707363 9.7e-5,-0.487339 0.594892,-0.85197 1.190032,-1.216493 0.59514,0.364523 1.190274,0.729154 1.190371,1.216493 9.7e-5,0.487338 -0.595231,1.097345 -1.190371,1.707363 z" />
        </g>
      </g>
    </g>
  </g>
</svg>
